<svg version="1.1" xmlns="http://www.w3.org/2000/svg" xmlns:xlink="http://www.w3.org/1999/xlink" width="320.99282" height="320.99282" viewBox="0,0,320.99282,320.99282"><g transform="translate(-79.50359,-19.50359)"><g data-paper-data="{&quot;isPaintingLayer&quot;:true}" fill-rule="nonzero" stroke-linejoin="miter" stroke-miterlimit="10" stroke-dasharray="" stroke-dashoffset="0" style="mix-blend-mode: normal"><path d="M79.5036,180.00001c0,-88.63972 71.85669,-160.49641 160.49641,-160.49641c88.63972,0 160.49641,71.85669 160.49641,160.49641c0,88.63972 -71.85669,160.49641 -160.49641,160.49641c-88.63972,0 -160.49641,-71.85669 -160.49641,-160.49641z" fill="#4d97ff" stroke="none" stroke-width="0" stroke-linecap="butt"/><path d="M233.48401,87.7276c0,0 145.61468,34.88075 114.67207,54.05461c-43.31965,26.8434 -172.50181,61.63824 -204.13984,75.01457c-70.35282,29.74466 107.21175,55.47563 107.21175,55.47563" fill="none" stroke="#f9a83a" stroke-width="25" stroke-linecap="round"/><path d="M165.5,234v-59h59v59z" fill="#efefef" stroke="#ffffff" stroke-width="0.5" stroke-linecap="butt"/><path d="M255.5,234v-108h59v108z" fill="#efefef" stroke="#ffffff" stroke-width="0.5" stroke-linecap="butt"/><path d="M174.25,225.34564v-50.0906h50.0906v50.0906z" fill="#ffffff" stroke="#ffffff" stroke-width="0.5" stroke-linecap="butt"/><path d="M255.6594,226.34564v-91.69128h50.0906v91.69128z" fill="#ffffff" stroke="#ffffff" stroke-width="0.5" stroke-linecap="butt"/></g></g></svg>